<?xml version="1.0" encoding="UTF-8" standalone="no"?>
<!DOCTYPE svg PUBLIC "-//W3C//DTD SVG 1.1//EN"
 "http://www.w3.org/Graphics/SVG/1.1/DTD/svg11.dtd">
<!-- Generated by graphviz version 2.40.1 (0)
 -->
<!-- Title: G Pages: 1 -->
<svg width="1583pt" height="684pt"
 viewBox="0.00 0.00 1583.16 684.00" xmlns="http://www.w3.org/2000/svg" xmlns:xlink="http://www.w3.org/1999/xlink">
<g id="graph0" class="graph" transform="scale(1 1) rotate(0) translate(4 680)">
<title>G</title>
<polygon fill="#ffffff" stroke="transparent" points="-4,4 -4,-680 1579.1611,-680 1579.1611,4 -4,4"/>
<g id="clust1" class="cluster">
<title>cluster_root</title>
<g id="a_clust1"><a xlink:title="eventq_index=0&#10;full_system=false&#10;sim_quantum=0&#10;time_sync_enable=false&#10;time_sync_period=100000000000&#10;time_sync_spin_threshold=100000000">
<path fill="#bab6ae" stroke="#000000" d="M20,-8C20,-8 1555,-8 1555,-8 1561,-8 1567,-14 1567,-20 1567,-20 1567,-656 1567,-656 1567,-662 1561,-668 1555,-668 1555,-668 20,-668 20,-668 14,-668 8,-662 8,-656 8,-656 8,-20 8,-20 8,-14 14,-8 20,-8"/>
<text text-anchor="middle" x="787.5" y="-652.8" font-family="Arial" font-size="14.00" fill="#000000">root </text>
<text text-anchor="middle" x="787.5" y="-637.8" font-family="Arial" font-size="14.00" fill="#000000">: Root</text>
</a>
</g>
</g>
<g id="clust2" class="cluster">
<title>cluster_system</title>
<g id="a_clust2"><a xlink:title="auto_unlink_shared_backstore=false&#10;cache_line_size=64&#10;eventq_index=0&#10;exit_on_work_items=false&#10;init_param=0&#10;m5ops_base=0&#10;mem_mode=atomic&#10;mem_ranges=0:8589934592&#10;memories=system.mem_ctrls.dram&#10;mmap_using_noreserve=false&#10;multi_thread=false&#10;&#10;um_work_ids=16&#10;&#13;eadfile=&#10;&#13;edirect_paths=system.redirect_paths0 system.redirect_paths1 system.redirect_paths2 system.redirect_paths3&#10;shadow_rom_ranges=&#10;shared_backstore=&#10;symbolfile=&#10;thermal_components=&#10;thermal_model=Null&#10;work_begin_ckpt_count=0&#10;work_begin_cpu_id_exit=&#45;1&#10;work_begin_exit_count=0&#10;work_cpus_ckpt_count=0&#10;work_end_ckpt_count=0&#10;work_end_exit_count=0&#10;work_item_id=&#45;1&#10;workload=system.workload">
<path fill="#e4e7eb" stroke="#000000" d="M28,-16C28,-16 1547,-16 1547,-16 1553,-16 1559,-22 1559,-28 1559,-28 1559,-610 1559,-610 1559,-616 1553,-622 1547,-622 1547,-622 28,-622 28,-622 22,-622 16,-616 16,-610 16,-610 16,-28 16,-28 16,-22 22,-16 28,-16"/>
<text text-anchor="middle" x="787.5" y="-606.8" font-family="Arial" font-size="14.00" fill="#000000">system </text>
<text text-anchor="middle" x="787.5" y="-591.8" font-family="Arial" font-size="14.00" fill="#000000">: System</text>
</a>
</g>
</g>
<g id="clust4" class="cluster">
<title>cluster_system_cpu</title>
<g id="a_clust4"><a xlink:title="branchPred=Null&#10;checker=Null&#10;clk_domain=system.cpu_clk_domain&#10;cpu_id=0&#10;decoder=system.cpu.decoder&#10;do_checkpoint_insts=true&#10;do_statistics_insts=true&#10;eventq_index=0&#10;function_trace=false&#10;function_trace_start=0&#10;interrupts=system.cpu.interrupts&#10;isa=system.cpu.isa&#10;max_insts_all_threads=0&#10;max_insts_any_thread=1000000000&#10;mmu=system.cpu.mmu&#10;&#10;umThreads=1&#10;power_gating_on_idle=false&#10;power_model=&#10;power_state=system.cpu.power_state&#10;progress_interval=0&#10;pwr_gating_latency=300&#10;simpoint_start_insts=&#10;simulate_data_stalls=false&#10;simulate_inst_stalls=false&#10;socket_id=0&#10;switched_out=false&#10;syscallRetryLatency=10000&#10;system=system&#10;tracer=system.cpu.tracer&#10;width=1&#10;workload=system.cpu.workload">
<path fill="#bbc6d9" stroke="#000000" d="M36,-24C36,-24 946,-24 946,-24 952,-24 958,-30 958,-36 958,-36 958,-380 958,-380 958,-386 952,-392 946,-392 946,-392 36,-392 36,-392 30,-392 24,-386 24,-380 24,-380 24,-36 24,-36 24,-30 30,-24 36,-24"/>
<text text-anchor="middle" x="491" y="-376.8" font-family="Arial" font-size="14.00" fill="#000000">cpu </text>
<text text-anchor="middle" x="491" y="-361.8" font-family="Arial" font-size="14.00" fill="#000000">: X86AtomicSimpleCPU</text>
</a>
</g>
</g>
<g id="clust5" class="cluster">
<title>cluster_system_cpu_mmu</title>
<g id="a_clust5"><a xlink:title="dtb=system.cpu.mmu.dtb&#10;eventq_index=0&#10;itb=system.cpu.mmu.itb">
<path fill="#bab6ae" stroke="#000000" d="M584,-147C584,-147 938,-147 938,-147 944,-147 950,-153 950,-159 950,-159 950,-334 950,-334 950,-340 944,-346 938,-346 938,-346 584,-346 584,-346 578,-346 572,-340 572,-334 572,-334 572,-159 572,-159 572,-153 578,-147 584,-147"/>
<text text-anchor="middle" x="761" y="-330.8" font-family="Arial" font-size="14.00" fill="#000000">mmu </text>
<text text-anchor="middle" x="761" y="-315.8" font-family="Arial" font-size="14.00" fill="#000000">: X86MMU</text>
</a>
</g>
</g>
<g id="clust6" class="cluster">
<title>cluster_system_cpu_mmu_itb</title>
<g id="a_clust6"><a xlink:title="entry_type=instruction&#10;eventq_index=0&#10;&#10;ext_level=Null&#10;size=64&#10;system=system&#10;walker=system.cpu.mmu.itb.walker">
<path fill="#9f9c95" stroke="#000000" d="M592,-155C592,-155 745,-155 745,-155 751,-155 757,-161 757,-167 757,-167 757,-288 757,-288 757,-294 751,-300 745,-300 745,-300 592,-300 592,-300 586,-300 580,-294 580,-288 580,-288 580,-167 580,-167 580,-161 586,-155 592,-155"/>
<text text-anchor="middle" x="668.5" y="-284.8" font-family="Arial" font-size="14.00" fill="#000000">itb </text>
<text text-anchor="middle" x="668.5" y="-269.8" font-family="Arial" font-size="14.00" fill="#000000">: X86TLB</text>
</a>
</g>
</g>
<g id="clust7" class="cluster">
<title>cluster_system_cpu_mmu_itb_walker</title>
<g id="a_clust7"><a xlink:title="clk_domain=system.cpu_clk_domain&#10;eventq_index=0&#10;&#10;um_squash_per_cycle=4&#10;power_model=&#10;power_state=system.cpu.mmu.itb.walker.power_state&#10;system=system">
<path fill="#84827c" stroke="#000000" d="M600,-163C600,-163 737,-163 737,-163 743,-163 749,-169 749,-175 749,-175 749,-242 749,-242 749,-248 743,-254 737,-254 737,-254 600,-254 600,-254 594,-254 588,-248 588,-242 588,-242 588,-175 588,-175 588,-169 594,-163 600,-163"/>
<text text-anchor="middle" x="668.5" y="-238.8" font-family="Arial" font-size="14.00" fill="#000000">walker </text>
<text text-anchor="middle" x="668.5" y="-223.8" font-family="Arial" font-size="14.00" fill="#000000">: X86PagetableWalker</text>
</a>
</g>
</g>
<g id="clust9" class="cluster">
<title>cluster_system_cpu_mmu_dtb</title>
<g id="a_clust9"><a xlink:title="entry_type=data&#10;eventq_index=0&#10;&#10;ext_level=Null&#10;size=64&#10;system=system&#10;walker=system.cpu.mmu.dtb.walker">
<path fill="#9f9c95" stroke="#000000" d="M777,-155C777,-155 930,-155 930,-155 936,-155 942,-161 942,-167 942,-167 942,-288 942,-288 942,-294 936,-300 930,-300 930,-300 777,-300 777,-300 771,-300 765,-294 765,-288 765,-288 765,-167 765,-167 765,-161 771,-155 777,-155"/>
<text text-anchor="middle" x="853.5" y="-284.8" font-family="Arial" font-size="14.00" fill="#000000">dtb </text>
<text text-anchor="middle" x="853.5" y="-269.8" font-family="Arial" font-size="14.00" fill="#000000">: X86TLB</text>
</a>
</g>
</g>
<g id="clust10" class="cluster">
<title>cluster_system_cpu_mmu_dtb_walker</title>
<g id="a_clust10"><a xlink:title="clk_domain=system.cpu_clk_domain&#10;eventq_index=0&#10;&#10;um_squash_per_cycle=4&#10;power_model=&#10;power_state=system.cpu.mmu.dtb.walker.power_state&#10;system=system">
<path fill="#84827c" stroke="#000000" d="M785,-163C785,-163 922,-163 922,-163 928,-163 934,-169 934,-175 934,-175 934,-242 934,-242 934,-248 928,-254 922,-254 922,-254 785,-254 785,-254 779,-254 773,-248 773,-242 773,-242 773,-175 773,-175 773,-169 779,-163 785,-163"/>
<text text-anchor="middle" x="853.5" y="-238.8" font-family="Arial" font-size="14.00" fill="#000000">walker </text>
<text text-anchor="middle" x="853.5" y="-223.8" font-family="Arial" font-size="14.00" fill="#000000">: X86PagetableWalker</text>
</a>
</g>
</g>
<g id="clust17" class="cluster">
<title>cluster_system_cpu_interrupts</title>
<g id="a_clust17"><a xlink:title="clk_domain=system.cpu.interrupts.clk_domain&#10;eventq_index=0&#10;int_latency=1000&#10;pio_latency=100000&#10;system=system">
<path fill="#bab6ae" stroke="#000000" d="M262,-163C262,-163 552,-163 552,-163 558,-163 564,-169 564,-175 564,-175 564,-242 564,-242 564,-248 558,-254 552,-254 552,-254 262,-254 262,-254 256,-254 250,-248 250,-242 250,-242 250,-175 250,-175 250,-169 256,-163 262,-163"/>
<text text-anchor="middle" x="407" y="-238.8" font-family="Arial" font-size="14.00" fill="#000000">interrupts </text>
<text text-anchor="middle" x="407" y="-223.8" font-family="Arial" font-size="14.00" fill="#000000">: X86LocalApic</text>
</a>
</g>
</g>
<g id="clust19" class="cluster">
<title>cluster_system_cpu_icache</title>
<g id="a_clust19"><a xlink:title="addr_ranges=0:18446744073709551615&#10;assoc=1&#10;clk_domain=system.cpu_clk_domain&#10;clusivity=mostly_incl&#10;compressor=Null&#10;data_latency=2&#10;demand_mshr_reserve=1&#10;eventq_index=0&#10;is_read_only=true&#10;max_miss_count=0&#10;move_contractions=true&#10;mshrs=4&#10;power_model=&#10;power_state=system.cpu.icache.power_state&#10;prefetch_on_access=false&#10;prefetch_on_pf_hit=false&#10;prefetcher=Null&#10;&#13;eplace_expansions=true&#10;&#13;eplacement_policy=system.cpu.icache.replacement_policy&#10;&#13;esponse_latency=2&#10;sequential_access=false&#10;size=16384&#10;system=system&#10;tag_latency=2&#10;tags=system.cpu.icache.tags&#10;tgts_per_mshr=16&#10;warmup_percentage=0&#10;write_allocator=Null&#10;write_buffers=8&#10;writeback_clean=false">
<path fill="#bab6ae" stroke="#000000" d="M307,-32C307,-32 477,-32 477,-32 483,-32 489,-38 489,-44 489,-44 489,-111 489,-111 489,-117 483,-123 477,-123 477,-123 307,-123 307,-123 301,-123 295,-117 295,-111 295,-111 295,-44 295,-44 295,-38 301,-32 307,-32"/>
<text text-anchor="middle" x="392" y="-107.8" font-family="Arial" font-size="14.00" fill="#000000">icache </text>
<text text-anchor="middle" x="392" y="-92.8" font-family="Arial" font-size="14.00" fill="#000000">: VictimL1ICache</text>
</a>
</g>
</g>
<g id="clust25" class="cluster">
<title>cluster_system_cpu_dcache</title>
<g id="a_clust25"><a xlink:title="addr_ranges=0:18446744073709551615&#10;assoc=1&#10;clk_domain=system.cpu_clk_domain&#10;clusivity=mostly_incl&#10;compressor=Null&#10;data_latency=2&#10;demand_mshr_reserve=1&#10;eventq_index=0&#10;is_read_only=false&#10;max_miss_count=0&#10;move_contractions=true&#10;mshrs=4&#10;power_model=&#10;power_state=system.cpu.dcache.power_state&#10;prefetch_on_access=false&#10;prefetch_on_pf_hit=false&#10;prefetcher=Null&#10;&#13;eplace_expansions=true&#10;&#13;eplacement_policy=system.cpu.dcache.replacement_policy&#10;&#13;esponse_latency=2&#10;sequential_access=false&#10;size=16384&#10;system=system&#10;tag_latency=2&#10;tags=system.cpu.dcache.tags&#10;tgts_per_mshr=16&#10;warmup_percentage=0&#10;write_allocator=Null&#10;write_buffers=8&#10;writeback_clean=true">
<path fill="#bab6ae" stroke="#000000" d="M76,-32C76,-32 246,-32 246,-32 252,-32 258,-38 258,-44 258,-44 258,-111 258,-111 258,-117 252,-123 246,-123 246,-123 76,-123 76,-123 70,-123 64,-117 64,-111 64,-111 64,-44 64,-44 64,-38 70,-32 76,-32"/>
<text text-anchor="middle" x="161" y="-107.8" font-family="Arial" font-size="14.00" fill="#000000">dcache </text>
<text text-anchor="middle" x="161" y="-92.8" font-family="Arial" font-size="14.00" fill="#000000">: VictimL1DCache</text>
</a>
</g>
</g>
<g id="clust31" class="cluster">
<title>cluster_system_cpu_itb_walker_cache</title>
<g id="a_clust31"><a xlink:title="addr_ranges=0:18446744073709551615&#10;assoc=2&#10;clk_domain=system.cpu_clk_domain&#10;clusivity=mostly_incl&#10;compressor=Null&#10;data_latency=2&#10;demand_mshr_reserve=1&#10;eventq_index=0&#10;is_read_only=false&#10;max_miss_count=0&#10;move_contractions=true&#10;mshrs=10&#10;power_model=&#10;power_state=system.cpu.itb_walker_cache.power_state&#10;prefetch_on_access=false&#10;prefetch_on_pf_hit=false&#10;prefetcher=Null&#10;&#13;eplace_expansions=true&#10;&#13;eplacement_policy=system.cpu.itb_walker_cache.replacement_policy&#10;&#13;esponse_latency=2&#10;sequential_access=false&#10;size=1024&#10;system=system&#10;tag_latency=2&#10;tags=system.cpu.itb_walker_cache.tags&#10;tgts_per_mshr=12&#10;warmup_percentage=0&#10;write_allocator=Null&#10;write_buffers=8&#10;writeback_clean=false">
<path fill="#bab6ae" stroke="#000000" d="M566,-32C566,-32 736,-32 736,-32 742,-32 748,-38 748,-44 748,-44 748,-111 748,-111 748,-117 742,-123 736,-123 736,-123 566,-123 566,-123 560,-123 554,-117 554,-111 554,-111 554,-44 554,-44 554,-38 560,-32 566,-32"/>
<text text-anchor="middle" x="651" y="-107.8" font-family="Arial" font-size="14.00" fill="#000000">itb_walker_cache </text>
<text text-anchor="middle" x="651" y="-92.8" font-family="Arial" font-size="14.00" fill="#000000">: PageTableWalkerCache</text>
</a>
</g>
</g>
<g id="clust37" class="cluster">
<title>cluster_system_cpu_dtb_walker_cache</title>
<g id="a_clust37"><a xlink:title="addr_ranges=0:18446744073709551615&#10;assoc=2&#10;clk_domain=system.cpu_clk_domain&#10;clusivity=mostly_incl&#10;compressor=Null&#10;data_latency=2&#10;demand_mshr_reserve=1&#10;eventq_index=0&#10;is_read_only=false&#10;max_miss_count=0&#10;move_contractions=true&#10;mshrs=10&#10;power_model=&#10;power_state=system.cpu.dtb_walker_cache.power_state&#10;prefetch_on_access=false&#10;prefetch_on_pf_hit=false&#10;prefetcher=Null&#10;&#13;eplace_expansions=true&#10;&#13;eplacement_policy=system.cpu.dtb_walker_cache.replacement_policy&#10;&#13;esponse_latency=2&#10;sequential_access=false&#10;size=1024&#10;system=system&#10;tag_latency=2&#10;tags=system.cpu.dtb_walker_cache.tags&#10;tgts_per_mshr=12&#10;warmup_percentage=0&#10;write_allocator=Null&#10;write_buffers=8&#10;writeback_clean=false">
<path fill="#bab6ae" stroke="#000000" d="M768,-32C768,-32 938,-32 938,-32 944,-32 950,-38 950,-44 950,-44 950,-111 950,-111 950,-117 944,-123 938,-123 938,-123 768,-123 768,-123 762,-123 756,-117 756,-111 756,-111 756,-44 756,-44 756,-38 762,-32 768,-32"/>
<text text-anchor="middle" x="853" y="-107.8" font-family="Arial" font-size="14.00" fill="#000000">dtb_walker_cache </text>
<text text-anchor="middle" x="853" y="-92.8" font-family="Arial" font-size="14.00" fill="#000000">: PageTableWalkerCache</text>
</a>
</g>
</g>
<g id="clust47" class="cluster">
<title>cluster_system_membus</title>
<g id="a_clust47"><a xlink:title="clk_domain=system.clk_domain&#10;eventq_index=0&#10;forward_latency=4&#10;frontend_latency=3&#10;header_latency=1&#10;max_outstanding_snoops=512&#10;max_routing_table_size=512&#10;point_of_coherency=true&#10;point_of_unification=true&#10;power_model=&#10;power_state=system.membus.power_state&#10;&#13;esponse_latency=2&#10;snoop_filter=system.membus.snoop_filter&#10;snoop_response_latency=4&#10;system=system&#10;use_default_range=false&#10;width=16">
<path fill="#6f798c" stroke="#000000" d="M324,-400C324,-400 576,-400 576,-400 582,-400 588,-406 588,-412 588,-412 588,-479 588,-479 588,-485 582,-491 576,-491 576,-491 324,-491 324,-491 318,-491 312,-485 312,-479 312,-479 312,-412 312,-412 312,-406 318,-400 324,-400"/>
<text text-anchor="middle" x="450" y="-475.8" font-family="Arial" font-size="14.00" fill="#000000">membus </text>
<text text-anchor="middle" x="450" y="-460.8" font-family="Arial" font-size="14.00" fill="#000000">: SystemXBar</text>
</a>
</g>
</g>
<g id="clust50" class="cluster">
<title>cluster_system_l3</title>
<g id="a_clust50"><a xlink:title="addr_ranges=0:18446744073709551615&#10;assoc=4&#10;clk_domain=system.cpu_clk_domain&#10;clusivity=mostly_incl&#10;compressor=Null&#10;data_latency=20&#10;demand_mshr_reserve=1&#10;eventq_index=0&#10;is_read_only=false&#10;max_miss_count=0&#10;move_contractions=true&#10;mshrs=20&#10;power_model=&#10;power_state=system.l3.power_state&#10;prefetch_on_access=false&#10;prefetch_on_pf_hit=false&#10;prefetcher=Null&#10;&#13;eplace_expansions=true&#10;&#13;eplacement_policy=system.l3.replacement_policy&#10;&#13;esponse_latency=20&#10;sequential_access=false&#10;size=131072&#10;system=system&#10;tag_latency=20&#10;tags=system.l3.tags&#10;tgts_per_mshr=12&#10;warmup_percentage=0&#10;write_allocator=Null&#10;write_buffers=8&#10;writeback_clean=false">
<path fill="#bab6ae" stroke="#000000" d="M1073,-163C1073,-163 1243,-163 1243,-163 1249,-163 1255,-169 1255,-175 1255,-175 1255,-242 1255,-242 1255,-248 1249,-254 1243,-254 1243,-254 1073,-254 1073,-254 1067,-254 1061,-248 1061,-242 1061,-242 1061,-175 1061,-175 1061,-169 1067,-163 1073,-163"/>
<text text-anchor="middle" x="1158" y="-238.8" font-family="Arial" font-size="14.00" fill="#000000">l3 </text>
<text text-anchor="middle" x="1158" y="-223.8" font-family="Arial" font-size="14.00" fill="#000000">: RealL2CacheL3</text>
</a>
</g>
</g>
<g id="clust56" class="cluster">
<title>cluster_system_l2</title>
<g id="a_clust56"><a xlink:title="addr_ranges=0:18446744073709551615&#10;assoc=64&#10;clk_domain=system.cpu_clk_domain&#10;clusivity=mostly_excl&#10;compressor=Null&#10;data_latency=1&#10;demand_mshr_reserve=1&#10;eventq_index=0&#10;is_read_only=false&#10;max_miss_count=0&#10;move_contractions=true&#10;mshrs=8&#10;power_model=&#10;power_state=system.l2.power_state&#10;prefetch_on_access=false&#10;prefetch_on_pf_hit=false&#10;prefetcher=Null&#10;&#13;eplace_expansions=true&#10;&#13;eplacement_policy=system.l2.replacement_policy&#10;&#13;esponse_latency=1&#10;sequential_access=false&#10;size=4096&#10;system=system&#10;tag_latency=1&#10;tags=system.l2.tags&#10;tgts_per_mshr=12&#10;warmup_percentage=0&#10;write_allocator=Null&#10;write_buffers=4&#10;writeback_clean=false">
<path fill="#bab6ae" stroke="#000000" d="M1369,-32C1369,-32 1539,-32 1539,-32 1545,-32 1551,-38 1551,-44 1551,-44 1551,-111 1551,-111 1551,-117 1545,-123 1539,-123 1539,-123 1369,-123 1369,-123 1363,-123 1357,-117 1357,-111 1357,-111 1357,-44 1357,-44 1357,-38 1363,-32 1369,-32"/>
<text text-anchor="middle" x="1454" y="-107.8" font-family="Arial" font-size="14.00" fill="#000000">l2 </text>
<text text-anchor="middle" x="1454" y="-92.8" font-family="Arial" font-size="14.00" fill="#000000">: VictimCacheL2</text>
</a>
</g>
</g>
<g id="clust62" class="cluster">
<title>cluster_system_tol2bus</title>
<g id="a_clust62"><a xlink:title="clk_domain=system.cpu_clk_domain&#10;eventq_index=0&#10;forward_latency=0&#10;frontend_latency=1&#10;header_latency=1&#10;max_outstanding_snoops=512&#10;max_routing_table_size=512&#10;point_of_coherency=false&#10;point_of_unification=true&#10;power_model=&#10;power_state=system.tol2bus.power_state&#10;&#13;esponse_latency=1&#10;snoop_filter=system.tol2bus.snoop_filter&#10;snoop_response_latency=1&#10;system=system&#10;use_default_range=false&#10;width=32">
<path fill="#6f798c" stroke="#000000" d="M1275,-163C1275,-163 1527,-163 1527,-163 1533,-163 1539,-169 1539,-175 1539,-175 1539,-242 1539,-242 1539,-248 1533,-254 1527,-254 1527,-254 1275,-254 1275,-254 1269,-254 1263,-248 1263,-242 1263,-242 1263,-175 1263,-175 1263,-169 1269,-163 1275,-163"/>
<text text-anchor="middle" x="1401" y="-238.8" font-family="Arial" font-size="14.00" fill="#000000">tol2bus </text>
<text text-anchor="middle" x="1401" y="-223.8" font-family="Arial" font-size="14.00" fill="#000000">: L2XBar</text>
</a>
</g>
</g>
<g id="clust65" class="cluster">
<title>cluster_system_tol3bus</title>
<g id="a_clust65"><a xlink:title="clk_domain=system.cpu_clk_domain&#10;eventq_index=0&#10;forward_latency=0&#10;frontend_latency=1&#10;header_latency=1&#10;max_outstanding_snoops=512&#10;max_routing_table_size=512&#10;point_of_coherency=false&#10;point_of_unification=true&#10;power_model=&#10;power_state=system.tol3bus.power_state&#10;&#13;esponse_latency=1&#10;snoop_filter=system.tol3bus.snoop_filter&#10;snoop_response_latency=1&#10;system=system&#10;use_default_range=false&#10;width=32">
<path fill="#6f798c" stroke="#000000" d="M1218,-400C1218,-400 1470,-400 1470,-400 1476,-400 1482,-406 1482,-412 1482,-412 1482,-479 1482,-479 1482,-485 1476,-491 1470,-491 1470,-491 1218,-491 1218,-491 1212,-491 1206,-485 1206,-479 1206,-479 1206,-412 1206,-412 1206,-406 1212,-400 1218,-400"/>
<text text-anchor="middle" x="1344" y="-475.8" font-family="Arial" font-size="14.00" fill="#000000">tol3bus </text>
<text text-anchor="middle" x="1344" y="-460.8" font-family="Arial" font-size="14.00" fill="#000000">: L2XBar</text>
</a>
</g>
</g>
<g id="clust68" class="cluster">
<title>cluster_system_mem_ctrls</title>
<g id="a_clust68"><a xlink:title="clk_domain=system.clk_domain&#10;command_window=10000&#10;dram=system.mem_ctrls.dram&#10;eventq_index=0&#10;mem_sched_policy=frfcfs&#10;min_reads_per_switch=16&#10;min_writes_per_switch=16&#10;power_model=&#10;power_state=system.mem_ctrls.power_state&#10;qos_policy=Null&#10;qos_priorities=1&#10;qos_priority_escalation=false&#10;qos_q_policy=fifo&#10;qos_requestors= &#160;&#160;&#160;&#160;&#160;&#160;&#160;&#160;&#160;&#160;&#160;&#160;&#160;&#160;&#10;qos_syncro_scheduler=false&#10;qos_turnaround_policy=Null&#10;static_backend_latency=75000&#10;static_frontend_latency=75000&#10;system=system&#10;write_high_thresh_perc=85&#10;write_low_thresh_perc=50">
<path fill="#bab6ae" stroke="#000000" d="M978,-163C978,-163 1041,-163 1041,-163 1047,-163 1053,-169 1053,-175 1053,-175 1053,-242 1053,-242 1053,-248 1047,-254 1041,-254 1041,-254 978,-254 978,-254 972,-254 966,-248 966,-242 966,-242 966,-175 966,-175 966,-169 972,-163 978,-163"/>
<text text-anchor="middle" x="1009.5" y="-238.8" font-family="Arial" font-size="14.00" fill="#000000">mem_ctrls </text>
<text text-anchor="middle" x="1009.5" y="-223.8" font-family="Arial" font-size="14.00" fill="#000000">: MemCtrl</text>
</a>
</g>
</g>
<!-- system_system_port -->
<g id="node1" class="node">
<title>system_system_port</title>
<path fill="#b6b8bc" stroke="#000000" d="M486,-539.5C486,-539.5 558,-539.5 558,-539.5 564,-539.5 570,-545.5 570,-551.5 570,-551.5 570,-563.5 570,-563.5 570,-569.5 564,-575.5 558,-575.5 558,-575.5 486,-575.5 486,-575.5 480,-575.5 474,-569.5 474,-563.5 474,-563.5 474,-551.5 474,-551.5 474,-545.5 480,-539.5 486,-539.5"/>
<text text-anchor="middle" x="522" y="-553.8" font-family="Arial" font-size="14.00" fill="#000000">system_port</text>
</g>
<!-- system_membus_cpu_side_ports -->
<g id="node17" class="node">
<title>system_membus_cpu_side_ports</title>
<path fill="#586070" stroke="#000000" d="M476,-408.5C476,-408.5 568,-408.5 568,-408.5 574,-408.5 580,-414.5 580,-420.5 580,-420.5 580,-432.5 580,-432.5 580,-438.5 574,-444.5 568,-444.5 568,-444.5 476,-444.5 476,-444.5 470,-444.5 464,-438.5 464,-432.5 464,-432.5 464,-420.5 464,-420.5 464,-414.5 470,-408.5 476,-408.5"/>
<text text-anchor="middle" x="522" y="-422.8" font-family="Arial" font-size="14.00" fill="#000000">cpu_side_ports</text>
</g>
<!-- system_system_port&#45;&gt;system_membus_cpu_side_ports -->
<g id="edge1" class="edge">
<title>system_system_port&#45;&gt;system_membus_cpu_side_ports</title>
<path fill="none" stroke="#000000" d="M522,-539.285C522,-517.3856 522,-480.3861 522,-454.7663"/>
<polygon fill="#000000" stroke="#000000" points="525.5001,-454.5603 522,-444.5603 518.5001,-454.5603 525.5001,-454.5603"/>
</g>
<!-- system_cpu_icache_port -->
<g id="node2" class="node">
<title>system_cpu_icache_port</title>
<path fill="#959ead" stroke="#000000" d="M160,-171.5C160,-171.5 228,-171.5 228,-171.5 234,-171.5 240,-177.5 240,-183.5 240,-183.5 240,-195.5 240,-195.5 240,-201.5 234,-207.5 228,-207.5 228,-207.5 160,-207.5 160,-207.5 154,-207.5 148,-201.5 148,-195.5 148,-195.5 148,-183.5 148,-183.5 148,-177.5 154,-171.5 160,-171.5"/>
<text text-anchor="middle" x="194" y="-185.8" font-family="Arial" font-size="14.00" fill="#000000">icache_port</text>
</g>
<!-- system_cpu_icache_cpu_side -->
<g id="node9" class="node">
<title>system_cpu_icache_cpu_side</title>
<path fill="#94918b" stroke="#000000" d="M315,-40.5C315,-40.5 367,-40.5 367,-40.5 373,-40.5 379,-46.5 379,-52.5 379,-52.5 379,-64.5 379,-64.5 379,-70.5 373,-76.5 367,-76.5 367,-76.5 315,-76.5 315,-76.5 309,-76.5 303,-70.5 303,-64.5 303,-64.5 303,-52.5 303,-52.5 303,-46.5 309,-40.5 315,-40.5"/>
<text text-anchor="middle" x="341" y="-54.8" font-family="Arial" font-size="14.00" fill="#000000">cpu_side</text>
</g>
<!-- system_cpu_icache_port&#45;&gt;system_cpu_icache_cpu_side -->
<g id="edge2" class="edge">
<title>system_cpu_icache_port&#45;&gt;system_cpu_icache_cpu_side</title>
<path fill="none" stroke="#000000" d="M214.4397,-171.285C240.111,-148.4079 284.2732,-109.0525 313.0527,-83.4055"/>
<polygon fill="#000000" stroke="#000000" points="315.5968,-85.8264 320.7339,-76.5603 310.9396,-80.6004 315.5968,-85.8264"/>
</g>
<!-- system_cpu_dcache_port -->
<g id="node3" class="node">
<title>system_cpu_dcache_port</title>
<path fill="#959ead" stroke="#000000" d="M44,-171.5C44,-171.5 118,-171.5 118,-171.5 124,-171.5 130,-177.5 130,-183.5 130,-183.5 130,-195.5 130,-195.5 130,-201.5 124,-207.5 118,-207.5 118,-207.5 44,-207.5 44,-207.5 38,-207.5 32,-201.5 32,-195.5 32,-195.5 32,-183.5 32,-183.5 32,-177.5 38,-171.5 44,-171.5"/>
<text text-anchor="middle" x="81" y="-185.8" font-family="Arial" font-size="14.00" fill="#000000">dcache_port</text>
</g>
<!-- system_cpu_dcache_cpu_side -->
<g id="node11" class="node">
<title>system_cpu_dcache_cpu_side</title>
<path fill="#94918b" stroke="#000000" d="M84,-40.5C84,-40.5 136,-40.5 136,-40.5 142,-40.5 148,-46.5 148,-52.5 148,-52.5 148,-64.5 148,-64.5 148,-70.5 142,-76.5 136,-76.5 136,-76.5 84,-76.5 84,-76.5 78,-76.5 72,-70.5 72,-64.5 72,-64.5 72,-52.5 72,-52.5 72,-46.5 78,-40.5 84,-40.5"/>
<text text-anchor="middle" x="110" y="-54.8" font-family="Arial" font-size="14.00" fill="#000000">cpu_side</text>
</g>
<!-- system_cpu_dcache_port&#45;&gt;system_cpu_dcache_cpu_side -->
<g id="edge3" class="edge">
<title>system_cpu_dcache_port&#45;&gt;system_cpu_dcache_cpu_side</title>
<path fill="none" stroke="#000000" d="M85.0323,-171.285C89.9019,-149.2878 98.1442,-112.0554 103.8184,-86.4238"/>
<polygon fill="#000000" stroke="#000000" points="107.2577,-87.0804 106.0019,-76.5603 100.4232,-85.5674 107.2577,-87.0804"/>
</g>
<!-- system_cpu_mmu_itb_walker_port -->
<g id="node4" class="node">
<title>system_cpu_mmu_itb_walker_port</title>
<path fill="#6a6863" stroke="#000000" d="M608,-171.5C608,-171.5 638,-171.5 638,-171.5 644,-171.5 650,-177.5 650,-183.5 650,-183.5 650,-195.5 650,-195.5 650,-201.5 644,-207.5 638,-207.5 638,-207.5 608,-207.5 608,-207.5 602,-207.5 596,-201.5 596,-195.5 596,-195.5 596,-183.5 596,-183.5 596,-177.5 602,-171.5 608,-171.5"/>
<text text-anchor="middle" x="623" y="-185.8" font-family="Arial" font-size="14.00" fill="#000000">port</text>
</g>
<!-- system_cpu_itb_walker_cache_cpu_side -->
<g id="node13" class="node">
<title>system_cpu_itb_walker_cache_cpu_side</title>
<path fill="#94918b" stroke="#000000" d="M574,-40.5C574,-40.5 626,-40.5 626,-40.5 632,-40.5 638,-46.5 638,-52.5 638,-52.5 638,-64.5 638,-64.5 638,-70.5 632,-76.5 626,-76.5 626,-76.5 574,-76.5 574,-76.5 568,-76.5 562,-70.5 562,-64.5 562,-64.5 562,-52.5 562,-52.5 562,-46.5 568,-40.5 574,-40.5"/>
<text text-anchor="middle" x="600" y="-54.8" font-family="Arial" font-size="14.00" fill="#000000">cpu_side</text>
</g>
<!-- system_cpu_mmu_itb_walker_port&#45;&gt;system_cpu_itb_walker_cache_cpu_side -->
<g id="edge4" class="edge">
<title>system_cpu_mmu_itb_walker_port&#45;&gt;system_cpu_itb_walker_cache_cpu_side</title>
<path fill="none" stroke="#000000" d="M619.8019,-171.285C615.9398,-149.2878 609.4029,-112.0554 604.9027,-86.4238"/>
<polygon fill="#000000" stroke="#000000" points="608.3475,-85.8044 603.1709,-76.5603 601.453,-87.0149 608.3475,-85.8044"/>
</g>
<!-- system_cpu_mmu_dtb_walker_port -->
<g id="node5" class="node">
<title>system_cpu_mmu_dtb_walker_port</title>
<path fill="#6a6863" stroke="#000000" d="M793,-171.5C793,-171.5 823,-171.5 823,-171.5 829,-171.5 835,-177.5 835,-183.5 835,-183.5 835,-195.5 835,-195.5 835,-201.5 829,-207.5 823,-207.5 823,-207.5 793,-207.5 793,-207.5 787,-207.5 781,-201.5 781,-195.5 781,-195.5 781,-183.5 781,-183.5 781,-177.5 787,-171.5 793,-171.5"/>
<text text-anchor="middle" x="808" y="-185.8" font-family="Arial" font-size="14.00" fill="#000000">port</text>
</g>
<!-- system_cpu_dtb_walker_cache_cpu_side -->
<g id="node15" class="node">
<title>system_cpu_dtb_walker_cache_cpu_side</title>
<path fill="#94918b" stroke="#000000" d="M776,-40.5C776,-40.5 828,-40.5 828,-40.5 834,-40.5 840,-46.5 840,-52.5 840,-52.5 840,-64.5 840,-64.5 840,-70.5 834,-76.5 828,-76.5 828,-76.5 776,-76.5 776,-76.5 770,-76.5 764,-70.5 764,-64.5 764,-64.5 764,-52.5 764,-52.5 764,-46.5 770,-40.5 776,-40.5"/>
<text text-anchor="middle" x="802" y="-54.8" font-family="Arial" font-size="14.00" fill="#000000">cpu_side</text>
</g>
<!-- system_cpu_mmu_dtb_walker_port&#45;&gt;system_cpu_dtb_walker_cache_cpu_side -->
<g id="edge5" class="edge">
<title>system_cpu_mmu_dtb_walker_port&#45;&gt;system_cpu_dtb_walker_cache_cpu_side</title>
<path fill="none" stroke="#000000" d="M807.1657,-171.285C806.1627,-149.3856 804.4681,-112.3861 803.2946,-86.7663"/>
<polygon fill="#000000" stroke="#000000" points="806.7812,-86.3896 802.8272,-76.5603 799.7885,-86.71 806.7812,-86.3896"/>
</g>
<!-- system_cpu_interrupts_int_requestor -->
<g id="node6" class="node">
<title>system_cpu_interrupts_int_requestor</title>
<path fill="#94918b" stroke="#000000" d="M466.5,-171.5C466.5,-171.5 543.5,-171.5 543.5,-171.5 549.5,-171.5 555.5,-177.5 555.5,-183.5 555.5,-183.5 555.5,-195.5 555.5,-195.5 555.5,-201.5 549.5,-207.5 543.5,-207.5 543.5,-207.5 466.5,-207.5 466.5,-207.5 460.5,-207.5 454.5,-201.5 454.5,-195.5 454.5,-195.5 454.5,-183.5 454.5,-183.5 454.5,-177.5 460.5,-171.5 466.5,-171.5"/>
<text text-anchor="middle" x="505" y="-185.8" font-family="Arial" font-size="14.00" fill="#000000">int_requestor</text>
</g>
<!-- system_cpu_interrupts_int_responder -->
<g id="node7" class="node">
<title>system_cpu_interrupts_int_responder</title>
<path fill="#94918b" stroke="#000000" d="M342,-171.5C342,-171.5 424,-171.5 424,-171.5 430,-171.5 436,-177.5 436,-183.5 436,-183.5 436,-195.5 436,-195.5 436,-201.5 430,-207.5 424,-207.5 424,-207.5 342,-207.5 342,-207.5 336,-207.5 330,-201.5 330,-195.5 330,-195.5 330,-183.5 330,-183.5 330,-177.5 336,-171.5 342,-171.5"/>
<text text-anchor="middle" x="383" y="-185.8" font-family="Arial" font-size="14.00" fill="#000000">int_responder</text>
</g>
<!-- system_cpu_interrupts_pio -->
<g id="node8" class="node">
<title>system_cpu_interrupts_pio</title>
<path fill="#94918b" stroke="#000000" d="M270,-171.5C270,-171.5 300,-171.5 300,-171.5 306,-171.5 312,-177.5 312,-183.5 312,-183.5 312,-195.5 312,-195.5 312,-201.5 306,-207.5 300,-207.5 300,-207.5 270,-207.5 270,-207.5 264,-207.5 258,-201.5 258,-195.5 258,-195.5 258,-183.5 258,-183.5 258,-177.5 264,-171.5 270,-171.5"/>
<text text-anchor="middle" x="285" y="-185.8" font-family="Arial" font-size="14.00" fill="#000000">pio</text>
</g>
<!-- system_cpu_icache_mem_side -->
<g id="node10" class="node">
<title>system_cpu_icache_mem_side</title>
<path fill="#94918b" stroke="#000000" d="M409,-40.5C409,-40.5 469,-40.5 469,-40.5 475,-40.5 481,-46.5 481,-52.5 481,-52.5 481,-64.5 481,-64.5 481,-70.5 475,-76.5 469,-76.5 469,-76.5 409,-76.5 409,-76.5 403,-76.5 397,-70.5 397,-64.5 397,-64.5 397,-52.5 397,-52.5 397,-46.5 403,-40.5 409,-40.5"/>
<text text-anchor="middle" x="439" y="-54.8" font-family="Arial" font-size="14.00" fill="#000000">mem_side</text>
</g>
<!-- system_cpu_dcache_mem_side -->
<g id="node12" class="node">
<title>system_cpu_dcache_mem_side</title>
<path fill="#94918b" stroke="#000000" d="M178,-40.5C178,-40.5 238,-40.5 238,-40.5 244,-40.5 250,-46.5 250,-52.5 250,-52.5 250,-64.5 250,-64.5 250,-70.5 244,-76.5 238,-76.5 238,-76.5 178,-76.5 178,-76.5 172,-76.5 166,-70.5 166,-64.5 166,-64.5 166,-52.5 166,-52.5 166,-46.5 172,-40.5 178,-40.5"/>
<text text-anchor="middle" x="208" y="-54.8" font-family="Arial" font-size="14.00" fill="#000000">mem_side</text>
</g>
<!-- system_cpu_itb_walker_cache_mem_side -->
<g id="node14" class="node">
<title>system_cpu_itb_walker_cache_mem_side</title>
<path fill="#94918b" stroke="#000000" d="M668,-40.5C668,-40.5 728,-40.5 728,-40.5 734,-40.5 740,-46.5 740,-52.5 740,-52.5 740,-64.5 740,-64.5 740,-70.5 734,-76.5 728,-76.5 728,-76.5 668,-76.5 668,-76.5 662,-76.5 656,-70.5 656,-64.5 656,-64.5 656,-52.5 656,-52.5 656,-46.5 662,-40.5 668,-40.5"/>
<text text-anchor="middle" x="698" y="-54.8" font-family="Arial" font-size="14.00" fill="#000000">mem_side</text>
</g>
<!-- system_cpu_dtb_walker_cache_mem_side -->
<g id="node16" class="node">
<title>system_cpu_dtb_walker_cache_mem_side</title>
<path fill="#94918b" stroke="#000000" d="M870,-40.5C870,-40.5 930,-40.5 930,-40.5 936,-40.5 942,-46.5 942,-52.5 942,-52.5 942,-64.5 942,-64.5 942,-70.5 936,-76.5 930,-76.5 930,-76.5 870,-76.5 870,-76.5 864,-76.5 858,-70.5 858,-64.5 858,-64.5 858,-52.5 858,-52.5 858,-46.5 864,-40.5 870,-40.5"/>
<text text-anchor="middle" x="900" y="-54.8" font-family="Arial" font-size="14.00" fill="#000000">mem_side</text>
</g>
<!-- system_membus_cpu_side_ports&#45;&gt;system_cpu_interrupts_int_requestor -->
<g id="edge7" class="edge">
<title>system_membus_cpu_side_ports&#45;&gt;system_cpu_interrupts_int_requestor</title>
<path fill="none" stroke="#000000" d="M519.9577,-398.0279C516.4219,-348.7344 509.2563,-248.8383 506.3102,-207.7655"/>
<polygon fill="#000000" stroke="#000000" points="516.4877,-398.5726 520.6943,-408.2965 523.4697,-398.0717 516.4877,-398.5726"/>
</g>
<!-- system_l3_mem_side -->
<g id="node20" class="node">
<title>system_l3_mem_side</title>
<path fill="#94918b" stroke="#000000" d="M1081,-171.5C1081,-171.5 1141,-171.5 1141,-171.5 1147,-171.5 1153,-177.5 1153,-183.5 1153,-183.5 1153,-195.5 1153,-195.5 1153,-201.5 1147,-207.5 1141,-207.5 1141,-207.5 1081,-207.5 1081,-207.5 1075,-207.5 1069,-201.5 1069,-195.5 1069,-195.5 1069,-183.5 1069,-183.5 1069,-177.5 1075,-171.5 1081,-171.5"/>
<text text-anchor="middle" x="1111" y="-185.8" font-family="Arial" font-size="14.00" fill="#000000">mem_side</text>
</g>
<!-- system_membus_cpu_side_ports&#45;&gt;system_l3_mem_side -->
<g id="edge6" class="edge">
<title>system_membus_cpu_side_ports&#45;&gt;system_l3_mem_side</title>
<path fill="none" stroke="#000000" d="M590.6617,-424.1882C731.0438,-419.1727 1039.2558,-406.5644 1057,-392 1113.2483,-345.8314 1114.5676,-248.2051 1112.4532,-207.7028"/>
<polygon fill="#000000" stroke="#000000" points="590.3147,-420.6982 580.445,-424.5504 590.5628,-427.6938 590.3147,-420.6982"/>
</g>
<!-- system_membus_mem_side_ports -->
<g id="node18" class="node">
<title>system_membus_mem_side_ports</title>
<path fill="#586070" stroke="#000000" d="M332.5,-408.5C332.5,-408.5 433.5,-408.5 433.5,-408.5 439.5,-408.5 445.5,-414.5 445.5,-420.5 445.5,-420.5 445.5,-432.5 445.5,-432.5 445.5,-438.5 439.5,-444.5 433.5,-444.5 433.5,-444.5 332.5,-444.5 332.5,-444.5 326.5,-444.5 320.5,-438.5 320.5,-432.5 320.5,-432.5 320.5,-420.5 320.5,-420.5 320.5,-414.5 326.5,-408.5 332.5,-408.5"/>
<text text-anchor="middle" x="383" y="-422.8" font-family="Arial" font-size="14.00" fill="#000000">mem_side_ports</text>
</g>
<!-- system_membus_mem_side_ports&#45;&gt;system_cpu_interrupts_int_responder -->
<g id="edge9" class="edge">
<title>system_membus_mem_side_ports&#45;&gt;system_cpu_interrupts_int_responder</title>
<path fill="none" stroke="#000000" d="M383,-408.2965C383,-367.283 383,-267.3911 383,-218.0466"/>
<polygon fill="#000000" stroke="#000000" points="386.5001,-217.7655 383,-207.7655 379.5001,-217.7655 386.5001,-217.7655"/>
</g>
<!-- system_membus_mem_side_ports&#45;&gt;system_cpu_interrupts_pio -->
<g id="edge8" class="edge">
<title>system_membus_mem_side_ports&#45;&gt;system_cpu_interrupts_pio</title>
<path fill="none" stroke="#000000" d="M338.7247,-408.4295C331.9339,-403.9517 325.6488,-398.519 321,-392 283.4284,-339.3136 281.0104,-259.7418 282.8035,-217.7523"/>
<polygon fill="#000000" stroke="#000000" points="286.3028,-217.858 283.347,-207.6838 279.3129,-217.4805 286.3028,-217.858"/>
</g>
<!-- system_mem_ctrls_port -->
<g id="node27" class="node">
<title>system_mem_ctrls_port</title>
<path fill="#94918b" stroke="#000000" d="M986,-171.5C986,-171.5 1016,-171.5 1016,-171.5 1022,-171.5 1028,-177.5 1028,-183.5 1028,-183.5 1028,-195.5 1028,-195.5 1028,-201.5 1022,-207.5 1016,-207.5 1016,-207.5 986,-207.5 986,-207.5 980,-207.5 974,-201.5 974,-195.5 974,-195.5 974,-183.5 974,-183.5 974,-177.5 980,-171.5 986,-171.5"/>
<text text-anchor="middle" x="1001" y="-185.8" font-family="Arial" font-size="14.00" fill="#000000">port</text>
</g>
<!-- system_membus_mem_side_ports&#45;&gt;system_mem_ctrls_port -->
<g id="edge10" class="edge">
<title>system_membus_mem_side_ports&#45;&gt;system_mem_ctrls_port</title>
<path fill="none" stroke="#000000" d="M424.9718,-408.3761C434.6607,-404.9488 445.049,-401.8583 455,-400 468.1905,-397.5368 927.2601,-400.0443 938,-392 992.6994,-351.0294 1001.1977,-263.0113 1001.7361,-217.7112"/>
<polygon fill="#000000" stroke="#000000" points="1005.2362,-217.6846 1001.7318,-207.6861 998.2362,-217.6877 1005.2362,-217.6846"/>
</g>
<!-- system_l3_cpu_side -->
<g id="node19" class="node">
<title>system_l3_cpu_side</title>
<path fill="#94918b" stroke="#000000" d="M1183,-171.5C1183,-171.5 1235,-171.5 1235,-171.5 1241,-171.5 1247,-177.5 1247,-183.5 1247,-183.5 1247,-195.5 1247,-195.5 1247,-201.5 1241,-207.5 1235,-207.5 1235,-207.5 1183,-207.5 1183,-207.5 1177,-207.5 1171,-201.5 1171,-195.5 1171,-195.5 1171,-183.5 1171,-183.5 1171,-177.5 1177,-171.5 1183,-171.5"/>
<text text-anchor="middle" x="1209" y="-185.8" font-family="Arial" font-size="14.00" fill="#000000">cpu_side</text>
</g>
<!-- system_l2_cpu_side -->
<g id="node21" class="node">
<title>system_l2_cpu_side</title>
<path fill="#94918b" stroke="#000000" d="M1377,-40.5C1377,-40.5 1429,-40.5 1429,-40.5 1435,-40.5 1441,-46.5 1441,-52.5 1441,-52.5 1441,-64.5 1441,-64.5 1441,-70.5 1435,-76.5 1429,-76.5 1429,-76.5 1377,-76.5 1377,-76.5 1371,-76.5 1365,-70.5 1365,-64.5 1365,-64.5 1365,-52.5 1365,-52.5 1365,-46.5 1371,-40.5 1377,-40.5"/>
<text text-anchor="middle" x="1403" y="-54.8" font-family="Arial" font-size="14.00" fill="#000000">cpu_side</text>
</g>
<!-- system_l2_mem_side -->
<g id="node22" class="node">
<title>system_l2_mem_side</title>
<path fill="#94918b" stroke="#000000" d="M1471,-40.5C1471,-40.5 1531,-40.5 1531,-40.5 1537,-40.5 1543,-46.5 1543,-52.5 1543,-52.5 1543,-64.5 1543,-64.5 1543,-70.5 1537,-76.5 1531,-76.5 1531,-76.5 1471,-76.5 1471,-76.5 1465,-76.5 1459,-70.5 1459,-64.5 1459,-64.5 1459,-52.5 1459,-52.5 1459,-46.5 1465,-40.5 1471,-40.5"/>
<text text-anchor="middle" x="1501" y="-54.8" font-family="Arial" font-size="14.00" fill="#000000">mem_side</text>
</g>
<!-- system_tol2bus_cpu_side_ports -->
<g id="node23" class="node">
<title>system_tol2bus_cpu_side_ports</title>
<path fill="#586070" stroke="#000000" d="M1283,-171.5C1283,-171.5 1375,-171.5 1375,-171.5 1381,-171.5 1387,-177.5 1387,-183.5 1387,-183.5 1387,-195.5 1387,-195.5 1387,-201.5 1381,-207.5 1375,-207.5 1375,-207.5 1283,-207.5 1283,-207.5 1277,-207.5 1271,-201.5 1271,-195.5 1271,-195.5 1271,-183.5 1271,-183.5 1271,-177.5 1277,-171.5 1283,-171.5"/>
<text text-anchor="middle" x="1329" y="-185.8" font-family="Arial" font-size="14.00" fill="#000000">cpu_side_ports</text>
</g>
<!-- system_tol2bus_cpu_side_ports&#45;&gt;system_cpu_icache_mem_side -->
<g id="edge11" class="edge">
<title>system_tol2bus_cpu_side_ports&#45;&gt;system_cpu_icache_mem_side</title>
<path fill="none" stroke="#000000" d="M1297.741,-165.8261C1286.1795,-158.378 1272.5715,-151.0461 1259,-147 1107.9254,-101.9592 701.5013,-166.5837 550,-123 517.0142,-113.5107 483.546,-92.0971 462.1127,-76.5396"/>
<polygon fill="#000000" stroke="#000000" points="1295.8999,-168.8059 1306.1487,-171.4918 1299.8118,-163.001 1295.8999,-168.8059"/>
</g>
<!-- system_tol2bus_cpu_side_ports&#45;&gt;system_cpu_dcache_mem_side -->
<g id="edge12" class="edge">
<title>system_tol2bus_cpu_side_ports&#45;&gt;system_cpu_dcache_mem_side</title>
<path fill="none" stroke="#000000" d="M1297.7613,-165.7573C1286.2017,-158.3029 1272.5896,-150.9847 1259,-147 1155.758,-116.7278 392.3322,-159.1539 291,-123 264.5305,-113.5561 239.8713,-92.1333 224.4231,-76.5612"/>
<polygon fill="#000000" stroke="#000000" points="1295.92,-168.7371 1306.1666,-171.4312 1299.8365,-162.9353 1295.92,-168.7371"/>
</g>
<!-- system_tol2bus_cpu_side_ports&#45;&gt;system_cpu_itb_walker_cache_mem_side -->
<g id="edge13" class="edge">
<title>system_tol2bus_cpu_side_ports&#45;&gt;system_cpu_itb_walker_cache_mem_side</title>
<path fill="none" stroke="#000000" d="M1297.4322,-165.7498C1285.9282,-158.3721 1272.4356,-151.1043 1259,-147 1151.1282,-114.0471 853.0413,-173.1286 752,-123 731.9835,-113.0694 716.6046,-91.97 707.4696,-76.5992"/>
<polygon fill="#000000" stroke="#000000" points="1295.5521,-168.7031 1305.8078,-171.3623 1299.4489,-162.8879 1295.5521,-168.7031"/>
</g>
<!-- system_tol2bus_cpu_side_ports&#45;&gt;system_cpu_dtb_walker_cache_mem_side -->
<g id="edge14" class="edge">
<title>system_tol2bus_cpu_side_ports&#45;&gt;system_cpu_dtb_walker_cache_mem_side</title>
<path fill="none" stroke="#000000" d="M1294.8924,-165.9441C1283.8172,-159.084 1271.225,-152.0778 1259,-147 1149.3285,-101.4469 1010.6853,-75.5147 942.2175,-64.6344"/>
<polygon fill="#000000" stroke="#000000" points="1293.0991,-168.9516 1303.4131,-171.3748 1296.8614,-163.0486 1293.0991,-168.9516"/>
</g>
<!-- system_tol2bus_mem_side_ports -->
<g id="node24" class="node">
<title>system_tol2bus_mem_side_ports</title>
<path fill="#586070" stroke="#000000" d="M1417.5,-171.5C1417.5,-171.5 1518.5,-171.5 1518.5,-171.5 1524.5,-171.5 1530.5,-177.5 1530.5,-183.5 1530.5,-183.5 1530.5,-195.5 1530.5,-195.5 1530.5,-201.5 1524.5,-207.5 1518.5,-207.5 1518.5,-207.5 1417.5,-207.5 1417.5,-207.5 1411.5,-207.5 1405.5,-201.5 1405.5,-195.5 1405.5,-195.5 1405.5,-183.5 1405.5,-183.5 1405.5,-177.5 1411.5,-171.5 1417.5,-171.5"/>
<text text-anchor="middle" x="1468" y="-185.8" font-family="Arial" font-size="14.00" fill="#000000">mem_side_ports</text>
</g>
<!-- system_tol2bus_mem_side_ports&#45;&gt;system_l2_cpu_side -->
<g id="edge15" class="edge">
<title>system_tol2bus_mem_side_ports&#45;&gt;system_l2_cpu_side</title>
<path fill="none" stroke="#000000" d="M1458.962,-171.285C1447.9504,-149.0923 1429.2443,-111.3923 1416.5176,-85.7431"/>
<polygon fill="#000000" stroke="#000000" points="1419.5413,-83.9625 1411.9612,-76.5603 1413.2708,-87.0739 1419.5413,-83.9625"/>
</g>
<!-- system_tol3bus_cpu_side_ports -->
<g id="node25" class="node">
<title>system_tol3bus_cpu_side_ports</title>
<path fill="#586070" stroke="#000000" d="M1370,-408.5C1370,-408.5 1462,-408.5 1462,-408.5 1468,-408.5 1474,-414.5 1474,-420.5 1474,-420.5 1474,-432.5 1474,-432.5 1474,-438.5 1468,-444.5 1462,-444.5 1462,-444.5 1370,-444.5 1370,-444.5 1364,-444.5 1358,-438.5 1358,-432.5 1358,-432.5 1358,-420.5 1358,-420.5 1358,-414.5 1364,-408.5 1370,-408.5"/>
<text text-anchor="middle" x="1416" y="-422.8" font-family="Arial" font-size="14.00" fill="#000000">cpu_side_ports</text>
</g>
<!-- system_tol3bus_cpu_side_ports&#45;&gt;system_l2_mem_side -->
<g id="edge16" class="edge">
<title>system_tol3bus_cpu_side_ports&#45;&gt;system_l2_mem_side</title>
<path fill="none" stroke="#000000" d="M1484.1578,-415.6391C1510.0719,-409.9997 1535.2476,-402.1393 1543,-392 1617.7896,-294.1831 1540.7611,-131.0525 1511.3698,-76.7244"/>
<polygon fill="#000000" stroke="#000000" points="1483.3093,-412.2404 1474.2245,-417.6918 1484.726,-419.0956 1483.3093,-412.2404"/>
</g>
<!-- system_tol3bus_mem_side_ports -->
<g id="node26" class="node">
<title>system_tol3bus_mem_side_ports</title>
<path fill="#586070" stroke="#000000" d="M1226.5,-408.5C1226.5,-408.5 1327.5,-408.5 1327.5,-408.5 1333.5,-408.5 1339.5,-414.5 1339.5,-420.5 1339.5,-420.5 1339.5,-432.5 1339.5,-432.5 1339.5,-438.5 1333.5,-444.5 1327.5,-444.5 1327.5,-444.5 1226.5,-444.5 1226.5,-444.5 1220.5,-444.5 1214.5,-438.5 1214.5,-432.5 1214.5,-432.5 1214.5,-420.5 1214.5,-420.5 1214.5,-414.5 1220.5,-408.5 1226.5,-408.5"/>
<text text-anchor="middle" x="1277" y="-422.8" font-family="Arial" font-size="14.00" fill="#000000">mem_side_ports</text>
</g>
<!-- system_tol3bus_mem_side_ports&#45;&gt;system_l3_cpu_side -->
<g id="edge17" class="edge">
<title>system_tol3bus_mem_side_ports&#45;&gt;system_l3_cpu_side</title>
<path fill="none" stroke="#000000" d="M1266.4476,-408.254C1263.7603,-403.1112 1261.0547,-397.4345 1259,-392 1236.1829,-331.6522 1220.9074,-257.2212 1213.7279,-217.5395"/>
<polygon fill="#000000" stroke="#000000" points="1217.1472,-216.7757 1211.9577,-207.5388 1210.2543,-217.9958 1217.1472,-216.7757"/>
</g>
</g>
</svg>
